<?xml version="1.0" encoding="utf-8"?>
<!-- Generator: Adobe Illustrator 15.0.0, SVG Export Plug-In . SVG Version: 6.00 Build 0)  -->
<!DOCTYPE svg PUBLIC "-//W3C//DTD SVG 1.1//EN" "http://www.w3.org/Graphics/SVG/1.1/DTD/svg11.dtd">
<svg version="1.1" id="Layer_1" xmlns="http://www.w3.org/2000/svg" xmlns:xlink="http://www.w3.org/1999/xlink" x="0px" y="0px"
	 width="432px" height="144px" viewBox="0 0 432 144" enable-background="new 0 0 432 144" xml:space="preserve">
<g>
	<path fill="#FBB040" d="M54.25,44.554L24.564,85.764h5.078l7.719-10.812h22.324l1.874,10.812h4.73l-7.596-41.209H54.25z
		 M40.285,70.799l14.96-20.985l3.681,20.985H40.285z"/>
	<polygon fill="#FBB040" points="73.564,85.764 78.177,85.764 89.168,44.849 84.551,44.849 	"/>
	<path fill="#FBB040" d="M159.986,74.951h22.325l1.869,10.812h4.734l-7.6-41.209h-4.44l-29.69,41.209h5.084L159.986,74.951z
		 M177.87,49.814l3.681,20.985h-18.646L177.87,49.814z"/>
	<polygon fill="#FBB040" points="209.217,52.679 218.162,74.539 218.397,74.539 239.143,52.621 230.261,85.764 234.933,85.764 
		245.923,44.849 240.776,44.849 219.913,67.173 211.087,44.849 206.764,44.849 195.777,85.764 200.336,85.764 	"/>
	<polygon fill="#FBB040" points="277.279,81.551 252.324,81.551 256.176,67.233 278.152,67.233 279.325,63.023 257.289,63.023 
		261.033,49.058 285.693,49.058 286.861,44.849 257.579,44.849 246.593,85.764 276.165,85.764 	"/>
	<path fill="#FBB040" d="M351.61,44.849h-9.878l-10.995,40.915h13.856c8.709,0,16.069-2.865,20.98-7.775
		c4.151-4.211,6.433-9.701,6.433-15.957c0-4.966-1.521-8.822-4.44-11.747C363.994,46.777,358.391,44.849,351.61,44.849z
		 M362.066,75.064c-4.146,4.15-10.049,6.432-16.889,6.432h-8.65l8.709-32.383h6.079c5.437,0,9.76,1.462,12.453,4.15
		c2.218,2.164,3.444,5.201,3.444,9.059C367.213,67.35,365.344,71.791,362.066,75.064z"/>
	<path fill="#FBB040" d="M396.749,48.416c4.794,0,8.532,1.811,11.516,5.083l3.391-3.041c-3.097-3.622-8.121-6.192-14.494-6.192
		c-8.827,0-15.083,5.083-15.083,11.864c0,5.318,3.685,7.948,11.222,10.927c6.314,2.458,8.419,4.327,8.419,7.483
		c0,4.445-4.44,7.658-10.348,7.658c-6.016,0-10.049-2.164-13.498-6.373l-3.504,2.748c3.504,4.848,9.176,7.771,16.713,7.771
		c8.709,0,15.485-5.201,15.485-12.389c0-5.26-3.562-8.125-10.574-10.815c-6.433-2.512-9.058-4.205-9.058-7.536
		C386.936,51.865,390.615,48.416,396.749,48.416z"/>
	<path fill="#FBB040" d="M366.575,31.826l1.584,0.439l7.496-5.55c3.503-0.824,6.898-1.525,9.954-1.96c0,0,4.146-0.335,3.766-2.621
		c-0.194-0.615-1.204-0.824-2.082-0.986c-1.177-0.223-2.204-0.688-4.047-0.398c-2.472,0.502-4.894,1.055-7.297,1.625l-14.544-5.034
		l-1.901,0.838l9.117,6.12c-3.124,0.887-6.202,1.855-9.226,2.929l-5.129-2.92l-1.598,0.661l2.947,3.639
		c-19.673,7.601-37.621,19.745-56.465,40.88c-2.372,2.589-4.979,4.929-7.465,7.365l8.655-32.002h-4.576l-10.172,37.883
		c-40.367,38.344-83.325,64.354-169.407-13.544c4.219-0.737,7.908-2.272,10.275-4.645c2.281-2.335,3.626-5.318,3.626-8.886
		c0-2.802-0.937-5.255-2.688-7.07c-2.513-2.453-6.369-3.738-11.516-3.738h-14.726l-10.99,40.915h4.617l4.269-15.901h11.104
		l0.933,0.538c42.713,39.205,75.599,53.427,102.73,53.427c30.202,0,53.273-17.635,74.812-38.064l0.869-0.828
		c4.272-4.074,8.482-8.232,12.679-12.393c7.229-7.161,14.326-14.187,21.556-20.578l-9.004,33.799h4.414l10.406-38.747
		c9.732-8.003,25.345-14.585,39.63-18.627L366.575,31.826z M100.163,65.711l4.499-16.599h10.99c3.857,0,6.428,0.878,8.003,2.458
		c1.114,1.108,1.698,2.688,1.698,4.44c0,2.399-0.879,4.323-2.454,5.962c-2.281,2.281-6.256,3.738-11.633,3.738H100.163z"/>
</g>
</svg>
